HIERARCHY
ROOT Hips
{
  OFFSET 179.979 97.3047 303.174
  CHANNELS 6 Xposition Yposition Zposition Zrotation Xrotation Yrotation
  JOINT Spine
  {
    OFFSET 0.000859786 9.92346 -1.22733
    CHANNELS 3 Zrotation Xrotation Yrotation
    JOINT Spine1
    {
      OFFSET 0 11.732 0
      CHANNELS 3 Zrotation Xrotation Yrotation
      JOINT Spine2
      {
        OFFSET 0 13.4588 0
        CHANNELS 3 Zrotation Xrotation Yrotation
        JOINT Neck
        {
          OFFSET 2.54812e-05 15.0278 0.877907
          CHANNELS 3 Zrotation Xrotation Yrotation
          JOINT Head
          {
            OFFSET 0 10.3218 3.14243
            CHANNELS 3 Zrotation Xrotation Yrotation
            End Site
            {
              OFFSET 0 0 0
            }
          }
        }
        JOINT LeftShoulder
        {
          OFFSET 6.10582 9.10629 0.757062
          CHANNELS 3 Zrotation Xrotation Yrotation
          JOINT LeftArm
          {
            OFFSET 0 12.9223 0
            CHANNELS 3 Zrotation Xrotation Yrotation
            JOINT LeftForeArm
            {
              OFFSET 0 27.4047 0
              CHANNELS 3 Zrotation Xrotation Yrotation
              JOINT LeftHand
              {
                OFFSET -1.28204e-05 27.6145 0
                CHANNELS 3 Zrotation Xrotation Yrotation
                End Site
                {
                  OFFSET 0 0 0
                }
              }
            }
          }
        }
        JOINT RightShoulder
        {
          OFFSET -6.1057 9.10638 0.757076
          CHANNELS 3 Zrotation Xrotation Yrotation
          JOINT RightArm
          {
            OFFSET 0 12.9223 0
            CHANNELS 3 Zrotation Xrotation Yrotation
            JOINT RightForeArm
            {
              OFFSET 0 27.4047 0
              CHANNELS 3 Zrotation Xrotation Yrotation
              JOINT RightHand
              {
                OFFSET 1.28428e-05 27.6145 1.44975e-05
                CHANNELS 3 Zrotation Xrotation Yrotation
                End Site
                {
                  OFFSET 0 0 0
                }
              }
            }
          }
        }
      }
    }
  }
  JOINT LeftUpLeg
  {
    OFFSET 9.12387 -6.65719 -0.0554031
    CHANNELS 3 Zrotation Xrotation Yrotation
    JOINT LeftLeg
    {
      OFFSET 0 40.5994 0
      CHANNELS 3 Zrotation Xrotation Yrotation
      JOINT LeftFoot
      {
        OFFSET 0 42.099 0
        CHANNELS 3 Zrotation Xrotation Yrotation
        JOINT LeftToeBase
        {
          OFFSET 0 15.7216 0
          CHANNELS 3 Zrotation Xrotation Yrotation
          End Site
          {
            OFFSET 0 0 0
          }
        }
      }
    }
  }
  JOINT RightUpLeg
  {
    OFFSET -9.12503 -6.6556 -0.0553527
    CHANNELS 3 Zrotation Xrotation Yrotation
    JOINT RightLeg
    {
      OFFSET 0 40.5994 0
      CHANNELS 3 Zrotation Xrotation Yrotation
      JOINT RightFoot
      {
        OFFSET 0 42.099 0
        CHANNELS 3 Zrotation Xrotation Yrotation
        JOINT RightToeBase
        {
          OFFSET 0 15.7216 0
          CHANNELS 3 Zrotation Xrotation Yrotation
          End Site
          {
            OFFSET 0 0 0
          }
        }
      }
    }
  }
}
MOTION
Frames:	6
Frame Time:	0.0333333
-28.7018 98.2839 250.745 -1.76794 -6.31912 -1.19415 0.582936 -5.36948 0.333306 1.15899 3.21021 0.503692 1.10185 9.80445 0.509732 -1.66186 3.79039 -0.253824 0.527441 -2.25441 -0.965641 -88.0403 -22.3729 89.5905 18.2467 3.2721 -23.5342 9.46052 -15.068 -0.679728 -18.2764 13.3572 2.50806 87.0286 -10.0659 -90.507 -11.1477 8.89952 30.2465 -16.4132 -19.936 0.926726 19.3216 11.6386 -25.5537 -170.397 -4.58886 -5.70917 -3.37528 -17.6449 -3.49688 10.5329 80.1915 -12.6436 -0.965263 26.367 -3.60229 179.329 -3.97399 -3.48867 5.08053 -17.0943 16.2779 -44.4018 74.9346 46.2307 0.963532 26.3682 3.55537 
-28.7019 98.2838 250.741 -1.76819 -6.31473 -1.19724 0.582936 -5.36948 0.333306 1.15806 3.21021 0.503693 1.10089 9.80445 0.509842 -1.65135 3.76599 -0.2624 0.516284 -2.23321 -0.966218 -88.044 -22.3766 89.5901 18.2498 3.27633 -23.5338 9.45839 -15.0653 -0.679719 -18.2731 13.3626 2.51056 87.0293 -10.0645 -90.5067 -11.155 8.90616 30.2418 -16.4107 -19.9348 0.926719 19.3294 11.6574 -25.5576 -170.397 -4.5848 -5.70553 -3.37801 -17.6394 -3.50156 10.5463 80.1872 -12.656 -0.965263 26.367 -3.60229 179.333 -3.89953 -3.49109 5.0858 -17.1589 16.2831 -44.3953 74.9336 46.2224 0.963532 26.3682 3.55537 
-28.7034 98.2835 250.68 -1.7719 -6.27024 -1.23961 0.582936 -5.36948 0.333306 1.14815 3.21219 0.503697 1.0906 9.80644 0.511032 -1.50393 3.48406 -0.360827 0.365152 -1.93329 -0.975159 -88.1032 -22.4302 89.5831 18.2957 3.32411 -23.5661 9.43518 -15.0281 -0.6796 -18.2636 13.478 2.58363 87.0455 -10.0352 -90.5099 -11.2552 8.99915 30.169 -16.3673 -19.912 0.926586 19.4262 11.8788 -25.6052 -170.399 -4.52625 -5.6893 -3.40746 -17.6036 -3.544 10.6719 80.1497 -12.7687 -0.965263 26.367 -3.60229 179.333 -3.87612 -3.52188 5.08141 -17.0833 16.2711 -44.3435 74.9267 46.1535 0.963532 26.3682 3.55537 
-28.7037 98.2837 250.613 -1.78024 -6.25578 -1.28171 0.582904 -5.36401 0.333303 1.14414 3.22318 0.506864 1.08622 9.81739 0.514261 -1.33686 3.32846 -0.425354 0.263633 -1.64913 -0.955401 -88.178 -22.5103 89.5732 18.3896 3.36212 -23.6341 9.44071 -15.0154 -0.67956 -18.3104 13.6244 2.65647 87.0654 -9.99082 -90.5145 -11.3402 9.09945 30.0899 -16.3254 -19.8921 0.926469 19.5255 12.0903 -25.6917 -170.385 -4.46062 -5.72502 -3.42498 -17.64 -3.5524 10.703 80.1483 -12.7853 -0.965263 26.367 -3.60229 179.344 -3.73265 -3.53052 5.07367 -17.1798 16.2588 -44.32 74.9335 46.1217 0.963532 26.3682 3.55537 
-28.699 98.2842 250.547 -1.79556 -6.26219 -1.32337 0.582689 -5.3572 0.339514 1.14309 3.23683 0.520084 1.08276 9.83106 0.527793 -1.15565 3.31785 -0.486334 0.255964 -1.4541 -0.948417 -88.25 -22.6109 89.5616 18.5463 3.41567 -23.6919 9.48851 -15.0337 -0.679618 -18.3509 13.6993 2.66167 87.0817 -9.94429 -90.5189 -11.3728 9.21414 30.0281 -16.3073 -19.8906 0.92646 19.6345 12.3361 -25.8246 -170.368 -4.40543 -5.74481 -3.4391 -17.7012 -3.56949 10.7801 80.1611 -12.8524 -0.965263 26.367 -3.60229 179.358 -3.7156 -3.51242 5.05168 -17.1798 16.2204 -44.2654 74.9487 46.061 0.963532 26.3682 3.55537 
-28.6887 98.283 250.492 -1.80911 -6.27647 -1.36356 0.582255 -5.35383 0.354134 1.14321 3.24377 0.550834 1.0794 9.83796 0.558926 -0.985853 3.44207 -0.566162 0.343616 -1.36379 -0.985534 -88.3019 -22.6934 89.5522 18.7291 3.49251 -23.7205 9.56003 -15.0516 -0.679675 -18.3431 13.7011 2.60179 87.0922 -9.93434 -90.5203 -11.3863 9.33486 30.0288 -16.2834 -19.8936 0.926478 19.7463 12.5593 -25.9728 -170.364 -4.37556 -5.73435 -3.4489 -17.7392 -3.60416 10.9258 80.1677 -12.9927 -0.965263 26.367 -3.60229 179.364 -3.71772 -3.4876 5.03073 -17.1673 16.1771 -44.1762 74.9601 45.9681 0.963532 26.3682 3.55537 
